Coordinates
version=1
nRows=5
nColumns=46
inDegrees=yes

Units are S.I. units (second, meters, Newtons, ...)
Angles are in degrees.

endheader
time	pelvis_tilt	pelvis_list	pelvis_rotation	pelvis_tx	pelvis_ty	pelvis_tz	bb_angle	bb_tx	bb_ty	bb_tz	hip_flexion_r	hip_adduction_r	hip_rotation_r	knee_angle_r	knee_angle_r_beta	ankle_angle_r	subtalar_angle_r	mtp_angle_r	crank_angle_r	hip_flexion_l	hip_adduction_l	hip_rotation_l	knee_angle_l	knee_angle_l_beta	ankle_angle_l	subtalar_angle_l	mtp_angle_l	crank_angle_l	lumbar_extension	lumbar_bending	lumbar_rotation	arm_flex_r	arm_add_r	arm_rot_r	elbow_flex_r	pro_sup_r	wrist_flex_r	wrist_dev_r	arm_flex_l	arm_add_l	arm_rot_l	elbow_flex_l	pro_sup_l	wrist_flex_l	wrist_dev_l
      0.00500000	    -26.01971436	     -2.47219088	     -1.77129170	      0.15018294	      1.03393611	     -0.21394675	      0.00000000	      0.50000000	      0.00000000	      0.25000000	     87.59101694	     -2.02902395	      1.24639257	     81.61257638	      1.42440817	     12.40602670	     -2.71366664	      0.00000000	      0.00000000	     60.89082593	     -5.59453677	      4.71404652	     77.27100962	      1.34863353	     -4.39173020	    -15.59752797	      0.00000000	      0.00000000	    -40.96605676	      1.65955172	      1.74821387	     83.69019999	     -3.87785715	     28.26727290	     40.25188730	     30.04362442	      0.00000000	      0.00000000	     78.34541597	     -8.82354164	     44.58746915	     21.06912802	     26.87615288	      0.00000000	      0.00000000
      0.01000000	    -26.07074912	     -2.46219382	     -1.78894508	      0.15027758	      1.03390049	     -0.21394118	      0.00000000	      0.50000000	      0.00000000	      0.25000000	     87.63877748	     -1.99012248	      1.29123545	     81.59618326	      1.42412205	     12.37425999	     -2.71031253	      0.00000000	      0.00000000	     60.92428956	     -5.59249947	      4.69949827	     77.25976008	      1.34843719	     -4.40133815	    -15.62343963	      0.00000000	      0.00000000	    -40.93126485	      1.62877250	      1.73302607	     83.61724874	     -3.82736573	     27.85693357	     40.06286947	     31.74305551	      0.00000000	      0.00000000	     78.27258031	     -8.45848703	     42.80926304	     20.65440224	     28.56725201	      0.00000000	      0.00000000
      0.01500000	    -26.11031021	     -2.49550059	     -1.77051885	      0.15039315	      1.03385928	     -0.21406307	      0.00000000	      0.50000000	      0.00000000	      0.25000000	     87.66143611	     -2.01543336	      1.26445195	     81.58485539	      1.42392435	     12.38456192	     -2.66343164	      0.00000000	      0.00000000	     60.97036799	     -5.58345794	      4.73839020	     77.26440002	      1.34851817	     -4.48486352	    -15.77455267	      0.00000000	      0.00000000	    -40.90727698	      1.69291643	      1.80516205	     83.56112128	     -3.95576098	     27.85501673	     40.10214911	     32.51684776	      0.00000000	      0.00000000	     78.17976620	     -8.32894701	     42.17547633	     20.64889094	     29.33231795	      0.00000000	      0.00000000
      0.02000000	    -26.08441321	     -2.52908163	     -1.76159215	      0.15053994	      1.03378320	     -0.21399012	      0.00000000	      0.50000000	      0.00000000	      0.25000000	     87.65380473	     -2.01920319	      1.21772269	     81.64569223	      1.42498615	     12.35016350	     -2.67897722	      0.00000000	      0.00000000	     60.94137659	     -5.61249655	      4.77757976	     77.29854007	      1.34911403	     -4.32523408	    -15.58871340	      0.00000000	      0.00000000	    -40.95803502	      1.69384233	      1.87229994	     83.74463630	     -4.64538927	     29.36309421	     39.63057861	     36.05096884	      0.00000000	      0.00000000	     78.39982855	     -8.36058253	     43.03785322	     19.81255565	     32.83597843	      0.00000000	      0.00000000
      0.02500000	    -25.93450439	     -2.50402769	     -1.77066356	      0.15068519	      1.03419159	     -0.21401956	      0.00000000	      0.50000000	      0.00000000	      0.25000000	     87.49730604	     -2.08197189	      1.17999886	     81.68320779	      1.42564092	     12.47610351	     -2.49363949	      0.00000000	      0.00000000	     60.74051406	     -5.61967040	      4.71596932	     77.26635031	      1.34855221	     -4.40629351	    -15.88004818	      0.00000000	      0.00000000	    -41.15209024	      1.67283279	      1.88321654	     83.79310721	     -4.57423321	     28.77552506	     39.70460055	     36.32609646	      0.00000000	      0.00000000	     78.36247569	     -8.23738177	     41.95010906	     19.97644706	     33.11293664	      0.00000000	      0.00000000
